<svg width="14" height="16" viewBox="0 0 14 16" fill="none" xmlns="http://www.w3.org/2000/svg">
<path d="M12.2789 5.75L12.9834 5.04375C13.1299 4.89687 13.1299 4.65937 12.9834 4.5125L12.4534 3.98125C12.3069 3.83438 12.07 3.83438 11.9235 3.98125L11.2782 4.62813C10.3088 3.76875 9.08368 3.19375 7.73079 3.04063V1.5H8.60362C8.80936 1.5 8.97769 1.33125 8.97769 1.125V0.375C8.97769 0.16875 8.80936 0 8.60362 0H5.36167C5.15593 0 4.9876 0.16875 4.9876 0.375V1.125C4.9876 1.33125 5.15593 1.5 5.36167 1.5H6.2345V3.04375C3.00502 3.41563 0.498749 6.1625 0.498749 9.5C0.498749 13.0906 3.40092 16 6.98265 16C10.5644 16 13.4665 13.0906 13.4665 9.5C13.4665 8.10312 13.027 6.80937 12.2789 5.75ZM6.98265 14.5C4.22699 14.5 1.99503 12.2625 1.99503 9.5C1.99503 6.7375 4.22699 4.5 6.98265 4.5C9.7383 4.5 11.9703 6.7375 11.9703 9.5C11.9703 12.2625 9.7383 14.5 6.98265 14.5ZM7.35672 11H6.60858C6.40284 11 6.2345 10.8313 6.2345 10.625V6.375C6.2345 6.16875 6.40284 6 6.60858 6H7.35672C7.56246 6 7.73079 6.16875 7.73079 6.375V10.625C7.73079 10.8313 7.56246 11 7.35672 11Z" fill="#B3B3B3"/>
</svg>
